<svg width="97" height="31" viewBox="0 0 97 31" fill="none" xmlns="http://www.w3.org/2000/svg">
<g clip-path="url(#clip0_1019_33137)">
<path d="M86.1754 13.3582V16.9319H84.9957C83.2487 16.9319 82.7041 17.4129 82.7041 19.0396V24.217H79.5956V16.3494C80.122 16.6442 80.6843 16.8564 81.2602 16.8564C81.9564 16.8564 82.3868 16.5723 82.645 16.3279V17.2298H82.8663C83.3664 14.484 84.393 13.3582 86.1754 13.3582ZM6.69401 24.5378C4.83333 24.5378 3.82948 23.5758 3.3076 21.2845H3.10905V26.4649H0V13.3577H3.10855V16.2902H3.30709C3.82897 13.9994 4.90103 13.0598 6.76171 13.0598C9.34838 13.0598 10.6872 15.1904 10.6872 18.7182C10.6872 22.3842 9.30341 24.5378 6.69401 24.5378ZM7.6241 18.7417C7.6241 16.9319 6.94358 15.878 5.37794 15.878C3.9482 15.878 3.10905 16.863 3.10905 18.6504V18.8564C3.10905 20.6203 3.94871 21.7201 5.37794 21.7201C6.92085 21.7201 7.6241 20.6203 7.6241 18.7417ZM15.2987 13.0603C17.1594 13.0373 18.186 13.9994 18.7079 16.3136H18.9069V13.3582H21.9927V24.2175H18.9069V21.285H18.6856C18.1638 23.5758 17.0917 24.5383 15.2538 24.5383C12.6444 24.5383 11.3056 22.3847 11.3056 18.8564C11.305 15.1909 12.7115 13.0373 15.2987 13.0603ZM18.9064 18.9253V18.7192C18.9064 16.9553 18.044 15.8556 16.6375 15.8556C15.0719 15.8556 14.3686 16.9783 14.3686 18.8569C14.3686 20.6438 15.0497 21.7206 16.6375 21.7206C18.044 21.7201 18.9064 20.7121 18.9064 18.9253ZM32.9694 22.2577V13.3577H29.8831V18.3214C29.8831 19.5813 29.1571 20.3143 27.9092 20.3143C26.6159 20.3143 26.1167 19.4435 26.1167 18.3214V13.3577H23.0082V19.215C23.0082 21.5747 24.0065 23.1325 26.3436 23.1325C28.0679 23.1325 29.2233 22.2618 29.7224 19.7879H29.8836V22.3036C29.8836 23.5406 29.4299 24.4343 27.6597 24.4343C25.9086 24.4343 24.444 23.7599 23.8337 23.3743L22.6556 25.8722C23.4649 26.2828 25.4064 27 27.7279 27C30.9723 27 32.9694 25.3963 32.9694 22.2577ZM97 22.2577V13.3577H93.9142V18.3214C93.9142 19.5813 93.1882 20.3143 91.9403 20.3143C90.647 20.3143 90.1479 19.4435 90.1479 18.3214V13.3577H87.0393V19.215C87.0393 21.5747 88.0376 23.1325 90.3747 23.1325C92.099 23.1325 93.2544 22.2618 93.7535 19.7879H93.9147V22.3036C93.9147 23.5406 93.461 24.4343 91.6908 24.4343C89.9397 24.4343 88.4751 23.7599 87.8648 23.3743L86.6867 25.8722C87.496 26.2828 89.4375 27 91.759 27C95.0034 27 97 25.3963 97 22.2577ZM48.8531 24.217H45.7446V10.4691H48.8531V16.405H49.029C49.5281 13.9076 50.6684 13.0603 52.3926 13.0603C54.7297 13.0603 55.7053 14.6181 55.7053 16.9548V24.2175H52.6195V17.8485C52.6195 16.7258 52.1203 15.878 50.827 15.878C49.5791 15.878 48.8531 16.611 48.8531 17.8485V24.217ZM56.4681 19.0166C56.4681 15.2593 58.5329 13.0603 62.0275 13.0603C65.3401 13.0603 66.9512 15.1909 66.9512 18.1464C66.9512 18.6274 66.9512 18.9942 66.9057 19.5899H59.554C59.7581 21.1478 60.575 21.8354 62.027 21.8354C63.4567 21.8354 63.9331 21.1253 64.1827 20.2775L66.8603 21.0335C66.3384 23.004 64.9314 24.5159 61.9815 24.5159C58.7375 24.5148 56.4681 22.6362 56.4681 19.0166ZM59.5767 17.8255H64.115C64.024 16.382 63.3208 15.649 61.9365 15.649C60.5755 15.649 59.7808 16.2902 59.5767 17.8255ZM67.6525 18.7876C67.6525 15.168 69.8309 13.0603 73.2345 13.0603C76.6153 13.0603 78.7938 15.168 78.7938 18.7876C78.7938 22.3618 76.6835 24.5378 73.2345 24.5378C69.7627 24.5378 67.6525 22.3618 67.6525 18.7876ZM70.761 18.7646C70.761 20.5285 71.6234 21.6742 73.2118 21.6742C74.8229 21.6742 75.708 20.5285 75.708 18.7646C75.708 17.0237 74.8001 15.901 73.2345 15.901C71.6461 15.901 70.761 17.0237 70.761 18.7646ZM44.665 24.1741C43.9319 24.398 43.3843 24.5378 42.2824 24.5378C39.7862 24.5378 38.7429 22.8652 38.7429 20.8034V15.9693H37.495V13.3577H38.7429V10.9414H41.8287V13.3577H44.665V15.9693H41.8287V20.2077C41.8287 21.0784 42.1465 21.4905 43.0766 21.4905C43.553 21.4905 44.0976 21.3304 44.4836 21.2386L44.665 24.1741ZM74.6577 6.35978C74.6577 4.28831 76.0763 2.958 78.47 1.67105C80.6484 0.499887 82.9097 0 85.1034 0C89.971 0 91.3169 2.7356 91.3169 5.37582C91.3169 8.23844 89.8907 10.4762 87.0716 11.2954C85.2776 11.8167 83.0229 12.235 82.8183 13.9744C82.6344 15.5342 82.0484 16.0994 81.2602 16.0994C78.8706 16.0994 74.6577 10.6665 74.6577 6.35978ZM80.7308 13.3036C81.1274 13.3036 81.1668 12.8838 81.1971 12.3181C81.2754 10.8634 81.6043 10.3777 83.3654 9.51417C84.8679 8.7776 85.9223 7.56053 85.9223 6.43221C85.9223 5.3039 85.3398 4.15161 83.6913 4.15161C82.551 4.15161 81.4209 4.49082 80.1558 5.09935C78.7984 5.75176 77.9925 6.47506 77.9925 7.59777C77.992 9.88143 79.9517 13.3036 80.7308 13.3036Z" fill="#600075"/>
</g>
<defs>
<clipPath id="clip0_1019_33137">
<rect width="97" height="27" fill="white"/>
</clipPath>
</defs>
</svg>
