<?xml version="1.0" encoding="utf-8"?>
<!-- Generator: Adobe Illustrator 27.3.1, SVG Export Plug-In . SVG Version: 6.00 Build 0)  -->
<svg version="1.1" id="Layer_1" xmlns="http://www.w3.org/2000/svg" xmlns:xlink="http://www.w3.org/1999/xlink" x="0px" y="0px"
	 viewBox="0 0 43.8 37.1" style="enable-background:new 0 0 43.8 37.1;" xml:space="preserve">
<style type="text/css">
	.st0{fill:#43464D;}
</style>
<path class="st0" d="M9.5,5.1v22.5h29.2V5.1H9.5z M20.1,21.7l-1.8,1.8l-7.2-7.2l7.2-7.2l1.8,1.8l-5.3,5.3L20.1,21.7z M23.5,25.6
	L21,25.1l3.5-18l2.5,0.5L23.5,25.6z M29.8,23.5L28,21.7l5.3-5.3L28,11l1.8-1.8l7.2,7.2L29.8,23.5z M9.5,5.1v22.5h29.2V5.1H9.5z
	 M20.1,21.7l-1.8,1.8l-7.2-7.2l7.2-7.2l1.8,1.8l-5.3,5.3L20.1,21.7z M23.5,25.6L21,25.1l3.5-18l2.5,0.5L23.5,25.6z M29.8,23.5
	L28,21.7l5.3-5.3L28,11l1.8-1.8l7.2,7.2L29.8,23.5z M4.3,0v7.6H0v29.5h36.2v-4.3h7.6V0H4.3z M41.2,30.2h-7.6v4.3h-31V10.2h4.3V2.6
	h34.3V30.2z M38.6,5.1H9.5v22.5h29.2V5.1z M20.1,21.7l-1.8,1.8l-7.2-7.2l7.2-7.2l1.8,1.8l-5.3,5.3L20.1,21.7z M23.5,25.6L21,25.1
	l3.5-18l2.5,0.5L23.5,25.6z M29.8,23.5L28,21.7l5.3-5.3L28,11l1.8-1.8l7.2,7.2L29.8,23.5z"/>
</svg>
