<?xml version="1.0" encoding="utf-8"?>
<!-- Generator: Adobe Illustrator 27.3.1, SVG Export Plug-In . SVG Version: 6.00 Build 0)  -->
<svg version="1.1" id="Layer_1" xmlns="http://www.w3.org/2000/svg" xmlns:xlink="http://www.w3.org/1999/xlink" x="0px" y="0px"
	 viewBox="0 0 45.2 39.9" style="enable-background:new 0 0 45.2 39.9;" xml:space="preserve">
<style type="text/css">
	.st0{fill:#43464D;}
</style>
<path class="st0" d="M5.1,5.1v29.6h34.9V5.1H5.1z M9,14.2h12.3v2.6H9V14.2z M36.2,30.9H9v-6.4h27.2V30.9z M36.2,21.9H9v-2.6h27.2
	V21.9z M36.2,16.7H23.9v-2.6h12.3V16.7z M36.2,11.6H9V9h27.2V11.6z M5.1,5.1v29.6h34.9V5.1H5.1z M9,14.2h12.3v2.6H9V14.2z
	 M36.2,30.9H9v-6.4h27.2V30.9z M36.2,21.9H9v-2.6h27.2V21.9z M36.2,16.7H23.9v-2.6h12.3V16.7z M36.2,11.6H9V9h27.2V11.6z M0,0v39.9
	h45.2V0H0z M42.6,37.3H2.6V2.6h40.1V37.3z M40.1,5.1H5.1v29.6h34.9V5.1z M9,14.2h12.3v2.6H9V14.2z M36.2,30.9H9v-6.4h27.2V30.9z
	 M36.2,21.9H9v-2.6h27.2V21.9z M36.2,16.7H23.9v-2.6h12.3V16.7z M36.2,11.6H9V9h27.2V11.6z"/>
</svg>
