<?xml version="1.0" encoding="utf-8"?>
<!-- Generator: Adobe Illustrator 27.9.0, SVG Export Plug-In . SVG Version: 6.00 Build 0)  -->
<svg version="1.1" id="Layer_1" xmlns="http://www.w3.org/2000/svg" xmlns:xlink="http://www.w3.org/1999/xlink" x="0px" y="0px"
	 viewBox="0 0 40.1 34.7" style="enable-background:new 0 0 40.1 34.7;" xml:space="preserve">
<style type="text/css">
	.st0{fill:#94999e;}
</style>
<path class="st0" d="M40,34.7H0V0h40.1L40,34.7L40,34.7z M37.5,2.5h-35v29.6h34.9L37.5,2.5L37.5,2.5z M6.4,11.6h12.3v2.6H6.4V11.6z
	 M33.6,28.3H6.4v-6.4h27.2C33.6,21.9,33.6,28.3,33.6,28.3z M33.6,19.3H6.4v-2.6h27.2C33.6,16.7,33.6,19.3,33.6,19.3z M33.6,14.1
	H21.3v-2.6h12.3V14.1z M33.6,9H6.4V6.4h27.2C33.6,6.4,33.6,9,33.6,9z"/>
</svg>
