<?xml version="1.0" encoding="utf-8"?>
<!-- Generator: Adobe Illustrator 27.3.1, SVG Export Plug-In . SVG Version: 6.00 Build 0)  -->
<svg version="1.1" id="Layer_1" xmlns="http://www.w3.org/2000/svg" xmlns:xlink="http://www.w3.org/1999/xlink" x="0px" y="0px"
	 viewBox="0 0 47.8 46.7" style="enable-background:new 0 0 47.8 46.7;" xml:space="preserve">
<style type="text/css">
	.st0{fill:#43464D;}
</style>
<path class="st0" d="M20.8,10.5c-4.6,2-10.2,4-15.7,4.3v26.7c8.9-0.2,16-2.8,21.6-5.3c4.6-2.1,10.3-4,15.9-4.3V5.2
	C33.6,5.4,26.5,8,20.8,10.5z M9.2,16.9c1,0,1.8,0.8,1.8,1.8c0,1-0.8,1.8-1.8,1.8c-1,0-1.8-0.8-1.8-1.8C7.4,17.7,8.2,16.9,9.2,16.9z
	 M9.2,39.1c-1,0-1.8-0.8-1.8-1.8c0-1,0.8-1.8,1.8-1.8c1,0,1.8,0.8,1.8,1.8C10.9,38.3,10.2,39.1,9.2,39.1z M34.3,28.1l0.1,1.1l-1,0.3
	c-2.7,0.8-5.3,2-7.8,3.1l0,0c-3.3,1.5-6.7,3-10.8,4l-1.3,0.3l-0.3-1.3c-0.2-0.9-1-2.3-3-2.3l-1.3,0V23l1.1-0.2
	c2.2-0.4,3.4-2.1,3.2-4.2l-0.1-1.1l1-0.3c2.7-0.8,5.3-2,7.8-3.1c3.3-1.5,6.7-3,10.8-4L34,9.8l0.3,1.3c0.2,0.9,1,2.3,3,2.3l1.3,0
	v10.1l-1.1,0.2C35.3,24.3,34,25.9,34.3,28.1z M38.4,29.6c-1,0-1.8-0.8-1.8-1.8c0-1,0.8-1.8,1.8-1.8c1,0,1.8,0.8,1.8,1.8
	C40.2,28.8,39.4,29.6,38.4,29.6z M38.4,11.2c-1,0-1.8-0.8-1.8-1.8c0-1,0.8-1.8,1.8-1.8c1,0,1.8,0.8,1.8,1.8
	C40.2,10.4,39.4,11.2,38.4,11.2z M36,15.9c-1.8-0.4-3.1-1.6-3.8-3c-3.4,0.9-6.4,2.3-9.3,3.6c-2.3,1-4.6,2.1-7.1,2.9
	c-0.1,2.7-1.7,4.8-4.3,5.7v5.7c1.8,0.4,3.1,1.6,3.8,3c3.4-0.9,6.4-2.3,9.3-3.6l0,0c2.3-1,4.6-2.1,7.1-2.9c0.1-2.7,1.7-4.8,4.3-5.7
	V15.9z M20.8,10.5c-4.6,2-10.2,4-15.7,4.3v26.7c8.9-0.2,16-2.8,21.6-5.3c4.6-2.1,10.3-4,15.9-4.3V5.2C33.6,5.4,26.5,8,20.8,10.5z
	 M9.2,16.9c1,0,1.8,0.8,1.8,1.8c0,1-0.8,1.8-1.8,1.8c-1,0-1.8-0.8-1.8-1.8C7.4,17.7,8.2,16.9,9.2,16.9z M9.2,39.1
	c-1,0-1.8-0.8-1.8-1.8c0-1,0.8-1.8,1.8-1.8c1,0,1.8,0.8,1.8,1.8C10.9,38.3,10.2,39.1,9.2,39.1z M34.3,28.1l0.1,1.1l-1,0.3
	c-2.7,0.8-5.3,2-7.8,3.1l0,0c-3.3,1.5-6.7,3-10.8,4l-1.3,0.3l-0.3-1.3c-0.2-0.9-1-2.3-3-2.3l-1.3,0V23l1.1-0.2
	c2.2-0.4,3.4-2.1,3.2-4.2l-0.1-1.1l1-0.3c2.7-0.8,5.3-2,7.8-3.1c3.3-1.5,6.7-3,10.8-4L34,9.8l0.3,1.3c0.2,0.9,1,2.3,3,2.3l1.3,0
	v10.1l-1.1,0.2C35.3,24.3,34,25.9,34.3,28.1z M38.4,29.6c-1,0-1.8-0.8-1.8-1.8c0-1,0.8-1.8,1.8-1.8c1,0,1.8,0.8,1.8,1.8
	C40.2,28.8,39.4,29.6,38.4,29.6z M38.4,11.2c-1,0-1.8-0.8-1.8-1.8c0-1,0.8-1.8,1.8-1.8c1,0,1.8,0.8,1.8,1.8
	C40.2,10.4,39.4,11.2,38.4,11.2z M36,15.9c-1.8-0.4-3.1-1.6-3.8-3c-3.4,0.9-6.4,2.3-9.3,3.6c-2.3,1-4.6,2.1-7.1,2.9
	c-0.1,2.7-1.7,4.8-4.3,5.7v5.7c1.8,0.4,3.1,1.6,3.8,3c3.4-0.9,6.4-2.3,9.3-3.6l0,0c2.3-1,4.6-2.1,7.1-2.9c0.1-2.7,1.7-4.8,4.3-5.7
	V15.9z M43.9,0C33.1,0,24.8,3.1,18.7,5.8C12.9,8.4,8.2,9.7,3.9,9.7H0v37h3.9c10.7,0,18.9-3.1,24.9-5.8c3.7-1.7,9.3-3.9,15.1-3.9h3.9
	V0H43.9z M45.2,34.4h-1.3c-5.7,0-11.2,1.9-16.2,4.1c-5.8,2.6-13.7,5.6-23.9,5.6H2.6V12.2h1.3c5.6,0,11.1-1.9,15.9-4.1
	c5.8-2.6,13.8-5.6,24.1-5.6h1.3V34.4z M5.1,14.8v26.7c8.9-0.2,16-2.8,21.6-5.3c4.6-2.1,10.3-4,15.9-4.3V5.2
	C33.6,5.4,26.5,8,20.8,10.5C16.3,12.6,10.7,14.5,5.1,14.8z M9.2,16.9c1,0,1.8,0.8,1.8,1.8c0,1-0.8,1.8-1.8,1.8c-1,0-1.8-0.8-1.8-1.8
	C7.4,17.7,8.2,16.9,9.2,16.9z M9.2,39.1c-1,0-1.8-0.8-1.8-1.8c0-1,0.8-1.8,1.8-1.8c1,0,1.8,0.8,1.8,1.8
	C10.9,38.3,10.2,39.1,9.2,39.1z M38.4,29.6c-1,0-1.8-0.8-1.8-1.8c0-1,0.8-1.8,1.8-1.8c1,0,1.8,0.8,1.8,1.8
	C40.2,28.8,39.4,29.6,38.4,29.6z M38.4,7.6c1,0,1.8,0.8,1.8,1.8c0,1-0.8,1.8-1.8,1.8c-1,0-1.8-0.8-1.8-1.8
	C36.6,8.4,37.4,7.6,38.4,7.6z M32.7,10.2L34,9.8l0.3,1.3c0.2,0.9,1,2.3,3,2.3l1.3,0v10.1l-1.1,0.2c-2.2,0.4-3.4,2-3.2,4.2l0.1,1.1
	l-1,0.3c-2.7,0.8-5.3,2-7.8,3.1l0,0c-3.3,1.5-6.7,3-10.8,4l-1.3,0.3l-0.3-1.3c-0.2-0.9-1-2.3-3-2.3l-1.3,0V23l1.1-0.2
	c2.2-0.4,3.4-2.1,3.2-4.2l-0.1-1.1l1-0.3c2.7-0.8,5.3-2,7.8-3.1C25.2,12.7,28.6,11.2,32.7,10.2z M11.6,30.8c1.8,0.4,3.1,1.6,3.8,3
	c3.4-0.9,6.4-2.3,9.3-3.6l0,0c2.3-1,4.6-2.1,7.1-2.9c0.1-2.7,1.7-4.8,4.3-5.7v-5.7c-1.8-0.4-3.1-1.6-3.8-3c-3.4,0.9-6.4,2.3-9.3,3.6
	c-2.3,1-4.6,2.1-7.1,2.9c-0.1,2.7-1.7,4.8-4.3,5.7V30.8z M20.8,10.5c-4.6,2-10.2,4-15.7,4.3v26.7c8.9-0.2,16-2.8,21.6-5.3
	c4.6-2.1,10.3-4,15.9-4.3V5.2C33.6,5.4,26.5,8,20.8,10.5z M9.2,16.9c1,0,1.8,0.8,1.8,1.8c0,1-0.8,1.8-1.8,1.8c-1,0-1.8-0.8-1.8-1.8
	C7.4,17.7,8.2,16.9,9.2,16.9z M9.2,39.1c-1,0-1.8-0.8-1.8-1.8c0-1,0.8-1.8,1.8-1.8c1,0,1.8,0.8,1.8,1.8
	C10.9,38.3,10.2,39.1,9.2,39.1z M34.3,28.1l0.1,1.1l-1,0.3c-2.7,0.8-5.3,2-7.8,3.1l0,0c-3.3,1.5-6.7,3-10.8,4l-1.3,0.3l-0.3-1.3
	c-0.2-0.9-1-2.3-3-2.3l-1.3,0V23l1.1-0.2c2.2-0.4,3.4-2.1,3.2-4.2l-0.1-1.1l1-0.3c2.7-0.8,5.3-2,7.8-3.1c3.3-1.5,6.7-3,10.8-4
	L34,9.8l0.3,1.3c0.2,0.9,1,2.3,3,2.3l1.3,0v10.1l-1.1,0.2C35.3,24.3,34,25.9,34.3,28.1z M38.4,29.6c-1,0-1.8-0.8-1.8-1.8
	c0-1,0.8-1.8,1.8-1.8c1,0,1.8,0.8,1.8,1.8C40.2,28.8,39.4,29.6,38.4,29.6z M38.4,11.2c-1,0-1.8-0.8-1.8-1.8c0-1,0.8-1.8,1.8-1.8
	c1,0,1.8,0.8,1.8,1.8C40.2,10.4,39.4,11.2,38.4,11.2z M36,15.9c-1.8-0.4-3.1-1.6-3.8-3c-3.4,0.9-6.4,2.3-9.3,3.6
	c-2.3,1-4.6,2.1-7.1,2.9c-0.1,2.7-1.7,4.8-4.3,5.7v5.7c1.8,0.4,3.1,1.6,3.8,3c3.4-0.9,6.4-2.3,9.3-3.6l0,0c2.3-1,4.6-2.1,7.1-2.9
	c0.1-2.7,1.7-4.8,4.3-5.7V15.9z M20.8,10.5c-4.6,2-10.2,4-15.7,4.3v26.7c8.9-0.2,16-2.8,21.6-5.3c4.6-2.1,10.3-4,15.9-4.3V5.2
	C33.6,5.4,26.5,8,20.8,10.5z M9.2,16.9c1,0,1.8,0.8,1.8,1.8c0,1-0.8,1.8-1.8,1.8c-1,0-1.8-0.8-1.8-1.8C7.4,17.7,8.2,16.9,9.2,16.9z
	 M9.2,39.1c-1,0-1.8-0.8-1.8-1.8c0-1,0.8-1.8,1.8-1.8c1,0,1.8,0.8,1.8,1.8C10.9,38.3,10.2,39.1,9.2,39.1z M34.3,28.1l0.1,1.1l-1,0.3
	c-2.7,0.8-5.3,2-7.8,3.1l0,0c-3.3,1.5-6.7,3-10.8,4l-1.3,0.3l-0.3-1.3c-0.2-0.9-1-2.3-3-2.3l-1.3,0V23l1.1-0.2
	c2.2-0.4,3.4-2.1,3.2-4.2l-0.1-1.1l1-0.3c2.7-0.8,5.3-2,7.8-3.1c3.3-1.5,6.7-3,10.8-4L34,9.8l0.3,1.3c0.2,0.9,1,2.3,3,2.3l1.3,0
	v10.1l-1.1,0.2C35.3,24.3,34,25.9,34.3,28.1z M38.4,29.6c-1,0-1.8-0.8-1.8-1.8c0-1,0.8-1.8,1.8-1.8c1,0,1.8,0.8,1.8,1.8
	C40.2,28.8,39.4,29.6,38.4,29.6z M38.4,11.2c-1,0-1.8-0.8-1.8-1.8c0-1,0.8-1.8,1.8-1.8c1,0,1.8,0.8,1.8,1.8
	C40.2,10.4,39.4,11.2,38.4,11.2z M36,15.9c-1.8-0.4-3.1-1.6-3.8-3c-3.4,0.9-6.4,2.3-9.3,3.6c-2.3,1-4.6,2.1-7.1,2.9
	c-0.1,2.7-1.7,4.8-4.3,5.7v5.7c1.8,0.4,3.1,1.6,3.8,3c3.4-0.9,6.4-2.3,9.3-3.6l0,0c2.3-1,4.6-2.1,7.1-2.9c0.1-2.7,1.7-4.8,4.3-5.7
	V15.9z M32.2,12.9c-3.4,0.9-6.4,2.3-9.3,3.6c-2.3,1-4.6,2.1-7.1,2.9c-0.1,2.7-1.7,4.8-4.3,5.7v5.7c1.8,0.4,3.1,1.6,3.8,3
	c3.4-0.9,6.4-2.3,9.3-3.6l0,0c2.3-1,4.6-2.1,7.1-2.9c0.1-2.7,1.7-4.8,4.3-5.7v-5.7C34.1,15.5,32.9,14.3,32.2,12.9z M32.2,12.9
	c-3.4,0.9-6.4,2.3-9.3,3.6c-2.3,1-4.6,2.1-7.1,2.9c-0.1,2.7-1.7,4.8-4.3,5.7v5.7c1.8,0.4,3.1,1.6,3.8,3c3.4-0.9,6.4-2.3,9.3-3.6l0,0
	c2.3-1,4.6-2.1,7.1-2.9c0.1-2.7,1.7-4.8,4.3-5.7v-5.7C34.1,15.5,32.9,14.3,32.2,12.9z"/>
</svg>
