<?xml version="1.0" encoding="utf-8"?>
<!-- Generator: Adobe Illustrator 27.9.0, SVG Export Plug-In . SVG Version: 6.00 Build 0)  -->
<svg version="1.1" id="Layer_1" xmlns="http://www.w3.org/2000/svg" xmlns:xlink="http://www.w3.org/1999/xlink" x="0px" y="0px"
	 viewBox="0 0 42.6 41.6" style="enable-background:new 0 0 42.6 41.6;" xml:space="preserve">
<style type="text/css">
	.st0{fill:#94999e;}
</style>
<path class="st0" d="M42.6,31.9h-1.3c-5.7,0-11.2,1.9-16.2,4.1c-5.8,2.6-13.7,5.6-23.9,5.6H0V9.7h1.3c5.6,0,11.1-1.9,15.9-4.1
	C23,3,31,0,41.3,0h1.3V31.9z M18.2,8C13.6,10,8,12,2.5,12.3V39c8.9-0.2,16-2.8,21.6-5.3c4.6-2.1,10.3-4,15.9-4.3V2.7
	C31,2.9,23.9,5.5,18.2,8z M6.6,14.4c1,0,1.8,0.8,1.8,1.8S7.6,18,6.6,18s-1.8-0.8-1.8-1.8S5.6,14.4,6.6,14.4z M6.6,36.6
	c-1,0-1.8-0.8-1.8-1.8S5.6,33,6.6,33s1.8,0.8,1.8,1.8C8.3,35.8,7.6,36.6,6.6,36.6z M31.7,25.6l0.1,1.1l-1,0.3
	c-2.7,0.8-5.3,2-7.8,3.1l0,0c-3.3,1.5-6.7,3-10.8,4l-1.3,0.3l-0.3-1.3c-0.2-0.9-1-2.3-3-2.3H6.3V20.5l1.1-0.2
	c2.2-0.4,3.4-2.1,3.2-4.2L10.5,15l1-0.3c2.7-0.8,5.3-2,7.8-3.1c3.3-1.5,6.7-3,10.8-4l1.3-0.3l0.3,1.3c0.2,0.9,1,2.3,3,2.3H36V21
	l-1.1,0.2C32.7,21.8,31.4,23.4,31.7,25.6z M35.8,27.1c-1,0-1.8-0.8-1.8-1.8s0.8-1.8,1.8-1.8s1.8,0.8,1.8,1.8
	C37.6,26.3,36.8,27.1,35.8,27.1z M35.8,8.7c-1,0-1.8-0.8-1.8-1.8s0.8-1.8,1.8-1.8s1.8,0.8,1.8,1.8S36.8,8.7,35.8,8.7z M29.6,10.4
	c-3.4,0.9-6.4,2.3-9.3,3.6c-2.3,1-4.6,2.1-7.1,2.9c-0.1,2.7-1.7,4.8-4.3,5.7v5.7c1.8,0.4,3.1,1.6,3.8,3c3.4-0.9,6.4-2.3,9.3-3.6l0,0
	c2.3-1,4.6-2.1,7.1-2.9c0.1-2.7,1.7-4.8,4.3-5.7v-5.7C31.5,13,30.3,11.8,29.6,10.4z"/>
</svg>
