<?xml version="1.0" encoding="utf-8"?>
<!-- Generator: Adobe Illustrator 27.3.1, SVG Export Plug-In . SVG Version: 6.00 Build 0)  -->
<svg version="1.1" id="Layer_1" xmlns="http://www.w3.org/2000/svg" xmlns:xlink="http://www.w3.org/1999/xlink" x="0px" y="0px"
	 viewBox="0 0 39.7 45.3" style="enable-background:new 0 0 39.7 45.3;" xml:space="preserve">
<style type="text/css">
	.st0{fill:#43464D;}
</style>
<g>
	<path class="st0" d="M27.9,11.8V5.1H9.6v30.6h25V11.8H27.9z M12.8,21.7h14.2v2.6H12.8V21.7z M31.3,30H12.8v-2.6h18.5V30z
		 M31.3,18.5H12.8V16h18.5V18.5z M27.9,11.8V5.1H9.6v30.6h25V11.8H27.9z M12.8,21.7h14.2v2.6H12.8V21.7z M31.3,30H12.8v-2.6h18.5V30
		z M31.3,18.5H12.8V16h18.5V18.5z M30.1,0H4.4v7H0v38.3h32.7v-4.4h7V9.6L30.1,0z M37.1,38.3h-7v4.4H2.6V9.6H7v-7h22l8.1,8.1V38.3z
		 M27.9,5.1H9.6v30.6h25V11.8h-6.7V5.1z M12.8,21.7h14.2v2.6H12.8V21.7z M31.3,30H12.8v-2.6h18.5V30z M31.3,16v2.6H12.8V16H31.3z"/>
</g>
</svg>
