<?xml version="1.0" encoding="utf-8"?>
<!-- Generator: Adobe Illustrator 27.3.1, SVG Export Plug-In . SVG Version: 6.00 Build 0)  -->
<svg version="1.1" id="Layer_1" xmlns="http://www.w3.org/2000/svg" xmlns:xlink="http://www.w3.org/1999/xlink" x="0px" y="0px"
	 viewBox="0 0 45.4 45.4" style="enable-background:new 0 0 45.4 45.4;" xml:space="preserve">
<style type="text/css">
	.st0{fill:#43464D;}
</style>
<path class="st0" d="M22.7,5.1C13,5.1,5.1,13,5.1,22.7c0,9.7,7.9,17.5,17.5,17.5c9.7,0,17.5-7.9,17.5-17.5
	C40.2,13,32.4,5.1,22.7,5.1z M35,14.2l1.2,2.1L34,17.5l-1.2-2.1L35,14.2z M21.5,7.7h2.4v2.6h-2.4V7.7z M7.7,21.5h2.6v2.4H7.7V21.5z
	 M10.3,31.2l-1.2-2.1l2.2-1.3l1.2,2.1L10.3,31.2z M11.4,17.5l-2.2-1.3l1.2-2.1l2.2,1.3L11.4,17.5z M16.2,36.2L14.2,35l1.3-2.2
	l2.1,1.2L16.2,36.2z M15.5,12.6l-1.3-2.2l2.1-1.2l1.3,2.2L15.5,12.6z M23.9,37.6h-2.4v-2.6h2.4V37.6z M24,28.7h-2.6v-6.5l7.4-7.4
	l1.8,1.8L24,23.2V28.7z M29.1,36.2L27.8,34l2.1-1.2l1.3,2.2L29.1,36.2z M29.9,12.6l-2.1-1.2l1.3-2.2l2.1,1.2L29.9,12.6z M35,31.2
	l-2.2-1.3l1.2-2.1l2.2,1.3L35,31.2z M35.1,23.9v-2.4h2.6v2.4H35.1z M22.7,5.1C13,5.1,5.1,13,5.1,22.7c0,9.7,7.9,17.5,17.5,17.5
	c9.7,0,17.5-7.9,17.5-17.5C40.2,13,32.4,5.1,22.7,5.1z M35,14.2l1.2,2.1L34,17.5l-1.2-2.1L35,14.2z M21.5,7.7h2.4v2.6h-2.4V7.7z
	 M7.7,21.5h2.6v2.4H7.7V21.5z M10.3,31.2l-1.2-2.1l2.2-1.3l1.2,2.1L10.3,31.2z M11.4,17.5l-2.2-1.3l1.2-2.1l2.2,1.3L11.4,17.5z
	 M16.2,36.2L14.2,35l1.3-2.2l2.1,1.2L16.2,36.2z M15.5,12.6l-1.3-2.2l2.1-1.2l1.3,2.2L15.5,12.6z M23.9,37.6h-2.4v-2.6h2.4V37.6z
	 M24,28.7h-2.6v-6.5l7.4-7.4l1.8,1.8L24,23.2V28.7z M29.1,36.2L27.8,34l2.1-1.2l1.3,2.2L29.1,36.2z M29.9,12.6l-2.1-1.2l1.3-2.2
	l2.1,1.2L29.9,12.6z M35,31.2l-2.2-1.3l1.2-2.1l2.2,1.3L35,31.2z M35.1,23.9v-2.4h2.6v2.4H35.1z M22.7,0C10.2,0,0,10.2,0,22.7
	c0,12.5,10.2,22.7,22.7,22.7c12.5,0,22.7-10.2,22.7-22.7C45.4,10.2,35.2,0,22.7,0z M22.7,42.8c-11.1,0-20.1-9-20.1-20.1
	s9-20.1,20.1-20.1s20.1,9,20.1,20.1S33.8,42.8,22.7,42.8z M22.7,5.1C13,5.1,5.1,13,5.1,22.7c0,9.7,7.9,17.5,17.5,17.5
	c9.7,0,17.5-7.9,17.5-17.5C40.2,13,32.4,5.1,22.7,5.1z M35,14.2l1.2,2.1L34,17.5l-1.2-2.1L35,14.2z M21.5,7.7h2.4v2.6h-2.4V7.7z
	 M7.7,21.5h2.6v2.4H7.7V21.5z M10.3,31.2l-1.2-2.1l2.2-1.3l1.2,2.1L10.3,31.2z M11.4,17.5l-2.2-1.3l1.2-2.1l2.2,1.3L11.4,17.5z
	 M16.2,36.2L14.2,35l1.3-2.2l2.1,1.2L16.2,36.2z M15.5,12.6l-1.3-2.2l2.1-1.2l1.3,2.2L15.5,12.6z M23.9,37.6h-2.4v-2.6h2.4V37.6z
	 M24,28.7h-2.6v-6.5l7.4-7.4l1.8,1.8L24,23.2V28.7z M29.1,36.2L27.8,34l2.1-1.2l1.3,2.2L29.1,36.2z M29.9,12.6l-2.1-1.2l1.3-2.2
	l2.1,1.2L29.9,12.6z M35,31.2l-2.2-1.3l1.2-2.1l2.2,1.3L35,31.2z M35.1,23.9v-2.4h2.6v2.4H35.1z"/>
</svg>
