<?xml version="1.0" encoding="utf-8"?>
<!-- Generator: Adobe Illustrator 27.9.0, SVG Export Plug-In . SVG Version: 6.00 Build 0)  -->
<svg version="1.1" id="Layer_1" xmlns="http://www.w3.org/2000/svg" xmlns:xlink="http://www.w3.org/1999/xlink" x="0px" y="0px"
	 viewBox="0 0 40.2 40.2" style="enable-background:new 0 0 40.2 40.2;" xml:space="preserve">
<style type="text/css">
	.st0{fill:#94999e;}
</style>
<path class="st0" d="M20.1,40.2C9,40.2,0,31.2,0,20.1S9,0,20.1,0s20.1,9,20.1,20.1S31.2,40.2,20.1,40.2z M20.1,2.5
	c-9.7,0-17.6,7.9-17.6,17.6S10.4,37.6,20,37.6c9.7,0,17.5-7.9,17.5-17.5C37.6,10.4,29.8,2.5,20.1,2.5z M32.4,11.6l1.2,2.1l-2.2,1.2
	l-1.2-2.1L32.4,11.6z M18.9,5.1h2.4v2.6h-2.4V5.1z M5.1,18.9h2.6v2.4H5.1V18.9z M7.7,28.6l-1.2-2.1l2.2-1.3l1.2,2.1L7.7,28.6z
	 M8.8,14.9l-2.2-1.3l1.2-2.1l2.2,1.3L8.8,14.9z M13.6,33.6l-2-1.2l1.3-2.2l2.1,1.2L13.6,33.6z M12.9,10l-1.3-2.2l2.1-1.2L15,8.8
	L12.9,10z M21.3,35h-2.4v-2.6h2.4V35z M21.4,26.1h-2.6v-6.5l7.4-7.4L28,14l-6.6,6.6V26.1z M26.5,33.6l-1.3-2.2l2.1-1.2l1.3,2.2
	L26.5,33.6z M27.3,10l-2.1-1.2l1.3-2.2l2.1,1.2L27.3,10z M32.4,28.6l-2.2-1.3l1.2-2.1l2.2,1.3L32.4,28.6z M32.5,21.3v-2.4h2.6v2.4
	H32.5z"/>
</svg>
