<?xml version="1.0" encoding="utf-8"?>
<!-- Generator: Adobe Illustrator 27.3.1, SVG Export Plug-In . SVG Version: 6.00 Build 0)  -->
<svg version="1.1" id="Layer_1" xmlns="http://www.w3.org/2000/svg" xmlns:xlink="http://www.w3.org/1999/xlink" x="0px" y="0px"
	 viewBox="0 0 45.2 45.4" style="enable-background:new 0 0 45.2 45.4;" xml:space="preserve">
<style type="text/css">
	.st0{fill:#44464C;}
</style>
<path class="st0" d="M5.1,5.1v25h34.9v-25H5.1z M36.2,26.2H9V9h27.2V26.2z M21.9,36.5c-2.3,0-4.2,1.6-4.8,3.7h9.6
	C26.1,38.1,24.2,36.5,21.9,36.5z M5.1,5.1v25h34.9v-25H5.1z M36.2,26.2H9V9h27.2V26.2z M21.9,36.5c-2.3,0-4.2,1.6-4.8,3.7h9.6
	C26.1,38.1,24.2,36.5,21.9,36.5z M45.2,0H0v35.2h13.9c-1.4,1.7-2.2,3.9-2.2,6.3v3.9H32v-3.9c0-2.3-0.8-4.5-2.2-6.3h15.4V0z
	 M42.6,32.7H23.2v1.4c3.5,0.6,6.3,3.7,6.3,7.4v1.3H14.3v-1.3c0-3.7,2.7-6.8,6.3-7.4v-1.4h-18V2.6h40.1V32.7z M40.1,5.1H5.1v25h34.9
	V5.1z M36.2,26.2H9V9h27.2V26.2z M17,40.2h9.6c-0.6-2.1-2.5-3.7-4.8-3.7C19.6,36.5,17.6,38.1,17,40.2z"/>
</svg>
