<?xml version="1.0" encoding="utf-8"?>
<!-- Generator: Adobe Illustrator 27.9.0, SVG Export Plug-In . SVG Version: 6.00 Build 0)  -->
<svg version="1.1" id="Layer_1" xmlns="http://www.w3.org/2000/svg" xmlns:xlink="http://www.w3.org/1999/xlink" x="0px" y="0px"
	 viewBox="0 0 40.1 40.2" style="enable-background:new 0 0 40.1 40.2;" xml:space="preserve">
<style type="text/css">
	.st0{fill:#94999e;}
</style>
<path class="st0" d="M40,30.1H20.6v1.4c3.5,0.6,6.3,3.7,6.3,7.4v1.3H11.7v-1.3c0-3.7,2.7-6.8,6.3-7.4v-1.4H0V0h40.1L40,30.1L40,30.1
	z M37.5,2.5h-35v25h34.9L37.5,2.5L37.5,2.5z M33.6,23.6H6.4V6.4h27.2C33.6,6.4,33.6,23.6,33.6,23.6z M14.4,37.6H24
	c-0.6-2.1-2.5-3.7-4.8-3.7C17,33.9,15,35.5,14.4,37.6z"/>
</svg>
